<svg width="168" height="56" viewBox="0 0 168 56" fill="none" xmlns="http://www.w3.org/2000/svg">
<path fill-rule="evenodd" clip-rule="evenodd" d="M10.9262 0.700875H11.5606L22.4515 25.582H21.6761L17.7638 16.6809H4.68768L0.775405 25.582H0L10.9262 0.700875ZM17.4466 15.98L11.2434 1.71715L4.96964 15.98H17.4466Z" fill="#4D9C93"/>
<path fill-rule="evenodd" clip-rule="evenodd" d="M24.2201 16.5407C24.2201 14.8586 24.5843 13.305 25.3127 11.8798C26.0647 10.4547 27.075 9.30997 28.3439 8.44556C29.6362 7.55778 31.093 7.11389 32.7143 7.11389C34.3826 7.11389 35.863 7.56946 37.1553 8.4806C38.4476 9.36838 39.458 10.4197 40.1864 11.6345V0H40.8913V24.1802C40.8913 24.3905 40.9383 24.5657 41.0323 24.7059C41.1498 24.8227 41.2908 24.8811 41.4553 24.8811V25.582C41.2438 25.582 41.0911 25.5586 40.9971 25.5119C40.7386 25.3951 40.5389 25.2199 40.3979 24.9862C40.2569 24.7292 40.1864 24.4606 40.1864 24.1802V21.7972C39.411 23.0121 38.3654 24.005 37.0496 24.776C35.7572 25.5469 34.4179 25.9324 33.0316 25.9324C31.7627 25.9324 30.5879 25.6637 29.507 25.1264C28.4261 24.5891 27.4862 23.8765 26.6873 22.9887C25.9119 22.0776 25.301 21.073 24.8546 19.975C24.4316 18.8536 24.2201 17.7088 24.2201 16.5407ZM40.1864 19.6596V13.1064C39.834 12.1252 39.2583 11.2374 38.4594 10.4431C37.6605 9.64873 36.7441 9.01794 35.7102 8.55069C34.6998 8.06007 33.7012 7.81477 32.7143 7.81477C31.516 7.81477 30.4351 8.06007 29.4717 8.55069C28.5319 9.0413 27.7212 9.70713 27.0398 10.5482C26.3584 11.3892 25.8297 12.3237 25.4537 13.3517C25.1013 14.3796 24.925 15.4426 24.925 16.5407C24.925 17.6854 25.1248 18.7835 25.5242 19.8348C25.9472 20.8627 26.5346 21.7856 27.2865 22.6033C28.0384 23.4209 28.8961 24.0634 29.8594 24.5307C30.8463 24.9979 31.9037 25.2315 33.0316 25.2315C33.7365 25.2315 34.4884 25.0914 35.2873 24.811C36.1097 24.5073 36.8851 24.0985 37.6135 23.5845C38.3419 23.0471 38.9411 22.4514 39.411 21.7972C39.881 21.1197 40.1394 20.4072 40.1864 19.6596Z" fill="#4D9C93"/>
<path fill-rule="evenodd" clip-rule="evenodd" d="M45.2447 20.3604C45.2447 19.3325 45.5619 18.433 46.1964 17.6621C46.8543 16.8911 47.7472 16.2837 48.875 15.8398C50.0029 15.3959 51.307 15.174 52.7873 15.174C53.8212 15.174 54.8786 15.2674 55.9594 15.4543C57.0638 15.6179 58.0507 15.8632 58.9201 16.1902V14.1227C58.9201 12.2303 58.3679 10.7117 57.2635 9.56696C56.1827 8.39883 54.7376 7.81477 52.9283 7.81477C52.0589 7.81477 51.1073 8.01335 50.0734 8.41051C49.063 8.78431 48.0409 9.33333 47.007 10.0576L46.5841 9.49687C47.7589 8.70254 48.875 8.1068 49.9324 7.70964C50.9898 7.31247 51.9884 7.11389 52.9283 7.11389C54.9725 7.11389 56.5939 7.74468 57.7922 9.00626C59.0141 10.2678 59.625 11.9733 59.625 14.1227V24.1802C59.625 24.4138 59.672 24.5891 59.766 24.7059C59.8834 24.8227 60.0244 24.8811 60.1889 24.8811V25.582H59.8717C59.8012 25.5586 59.7425 25.5353 59.6955 25.5119C59.4605 25.4184 59.2725 25.2549 59.1315 25.0213C58.9906 24.7643 58.9201 24.4839 58.9201 24.1802V22.4981C58.0742 23.5728 56.9698 24.4139 55.607 25.0213C54.2441 25.6287 52.7638 25.9324 51.166 25.9324C50.0616 25.9324 49.063 25.6871 48.1701 25.1965C47.2772 24.7059 46.5606 24.0401 46.0201 23.199C45.5032 22.3346 45.2447 21.3884 45.2447 20.3604ZM58.3914 22.0075C58.5794 21.7505 58.7086 21.5052 58.7791 21.2716C58.8731 21.0146 58.9201 20.781 58.9201 20.5707V16.9612C57.9802 16.5874 56.9933 16.3187 55.9594 16.1552C54.9491 15.9683 53.8917 15.8748 52.7873 15.8748C50.7431 15.8748 49.0865 16.2837 47.8177 17.1014C46.5723 17.9191 45.9497 19.0054 45.9497 20.3604C45.9497 21.2716 46.1729 22.101 46.6193 22.8486C47.0893 23.5728 47.7237 24.1569 48.5226 24.6007C49.3215 25.0213 50.2026 25.2315 51.166 25.2315C52.7403 25.2315 54.1736 24.9395 55.466 24.3554C56.7818 23.7714 57.757 22.9887 58.3914 22.0075Z" fill="#4D9C93"/>
<path d="M63.5166 24.8811L77.4739 8.09512H63.6928V7.39424H78.355V8.09512L64.433 24.8811H78.2141V25.582H63.5166V24.8811Z" fill="#4D9C93"/>
<path fill-rule="evenodd" clip-rule="evenodd" d="M89.4084 25.9324C88.2101 25.9324 87.0822 25.6871 86.0248 25.1965C84.9675 24.7059 84.0393 24.0284 83.2404 23.164C82.4415 22.2762 81.8189 21.2716 81.3724 20.1502C80.926 19.0054 80.7027 17.8023 80.7027 16.5407C80.7027 15.2557 80.926 14.0526 81.3724 12.9312C81.8423 11.7864 82.4768 10.7818 83.2757 9.9174C84.0746 9.02962 85.0027 8.34042 86.0601 7.84981C87.1175 7.3592 88.2336 7.11389 89.4084 7.11389C90.5833 7.11389 91.6994 7.3592 92.7568 7.84981C93.8141 8.34042 94.7423 9.02962 95.5412 9.9174C96.3401 10.7818 96.9628 11.7864 97.4092 12.9312C97.8791 14.0526 98.1141 15.2557 98.1141 16.5407C98.1141 17.8023 97.8909 19.0054 97.4444 20.1502C96.998 21.2716 96.3636 22.2762 95.5412 23.164C94.7423 24.0284 93.8141 24.7059 92.7568 25.1965C91.7229 25.6871 90.6068 25.9324 89.4084 25.9324ZM81.4076 16.6108C81.4076 18.1761 81.7601 19.6128 82.465 20.9212C83.1934 22.2295 84.1568 23.2808 85.3552 24.0751C86.577 24.8461 87.9164 25.2315 89.3732 25.2315C90.83 25.2315 92.1693 24.8344 93.3912 24.04C94.613 23.2457 95.5882 22.1827 96.3166 20.8511C97.045 19.5194 97.4092 18.0709 97.4092 16.5056C97.4092 14.9403 97.045 13.5035 96.3166 12.1952C95.5882 10.8636 94.613 9.80058 93.3912 9.00626C92.1928 8.21193 90.8652 7.81477 89.4084 7.81477C87.9751 7.81477 86.6475 8.22361 85.4257 9.0413C84.2038 9.83563 83.2287 10.8986 82.5003 12.2303C81.7719 13.562 81.4076 15.0221 81.4076 16.6108Z" fill="#4D9C93"/>
<path d="M102.905 0H103.61V22.8836C103.61 23.5611 103.822 24.0985 104.245 24.4956C104.668 24.8928 105.232 25.0914 105.936 25.0914C106.195 25.0914 106.5 25.068 106.853 25.0213C107.229 24.9512 107.57 24.8694 107.875 24.776L108.122 25.3367C107.816 25.4301 107.417 25.5236 106.923 25.617C106.43 25.7105 106.019 25.7572 105.69 25.7572C104.867 25.7572 104.198 25.5002 103.681 24.9862C103.164 24.4489 102.905 23.748 102.905 22.8836V0Z" fill="#4D9C93"/>
<path d="M125.296 25.582H124.591V15.4543C124.591 12.9312 124.157 11.0271 123.287 9.74218C122.441 8.45724 121.184 7.81477 119.516 7.81477C118.388 7.81477 117.284 8.09512 116.203 8.65582C115.146 9.19316 114.229 9.94076 113.454 10.8986C112.678 11.8331 112.126 12.8961 111.797 14.0876V25.582H111.092V0H111.797V12.0901C112.549 10.5715 113.618 9.36838 115.005 8.4806C116.414 7.56946 117.906 7.11389 119.481 7.11389C120.444 7.11389 121.278 7.28911 121.983 7.63955C122.712 7.98999 123.323 8.52733 123.816 9.25156C124.309 9.95244 124.674 10.8169 124.909 11.8448C125.167 12.8728 125.296 14.0759 125.296 15.4543V25.582Z" fill="#4D9C93"/>
<path d="M130.81 17.592V7.39424H131.515V17.592C131.515 20.1619 131.938 22.0776 132.783 23.3392C133.653 24.6007 134.957 25.2315 136.696 25.2315C137.871 25.2315 138.998 24.9629 140.079 24.4255C141.16 23.8882 142.1 23.1523 142.899 22.2178C143.721 21.2599 144.309 20.1735 144.661 18.9587V7.39424H145.366V24.1802C145.366 24.3905 145.413 24.5657 145.507 24.7059C145.625 24.8227 145.766 24.8811 145.93 24.8811V25.582H145.613C145.542 25.5586 145.484 25.5353 145.437 25.5119C145.202 25.4184 145.014 25.2549 144.873 25.0213C144.732 24.7643 144.661 24.4839 144.661 24.1802V20.9562C143.862 22.4748 142.746 23.6896 141.313 24.6007C139.88 25.4885 138.341 25.9324 136.696 25.9324C134.769 25.9324 133.3 25.2315 132.29 23.8298C131.303 22.428 130.81 20.3488 130.81 17.592Z" fill="#4D9C93"/>
<path fill-rule="evenodd" clip-rule="evenodd" d="M159.189 25.9324C157.755 25.9324 156.381 25.5353 155.065 24.7409C153.772 23.9232 152.762 22.942 152.034 21.7972V25.582H151.329V0H152.034V11.6345C152.974 10.3262 154.054 9.25156 155.276 8.41051C156.498 7.5461 157.908 7.11389 159.506 7.11389C160.845 7.11389 162.032 7.39424 163.066 7.95494C164.123 8.49228 165.016 9.2282 165.744 10.1627C166.496 11.0738 167.06 12.0901 167.436 13.2115C167.812 14.3096 168 15.4193 168 16.5407C168 17.7789 167.777 18.9587 167.33 20.0801C166.884 21.2015 166.261 22.2061 165.462 23.0939C164.663 23.9583 163.724 24.6475 162.643 25.1615C161.585 25.6754 160.434 25.9324 159.189 25.9324ZM159.189 25.2315C160.363 25.2315 161.444 24.9862 162.431 24.4956C163.418 24.005 164.276 23.3392 165.004 22.4981C165.733 21.6571 166.296 20.7226 166.696 19.6946C167.095 18.6667 167.295 17.6154 167.295 16.5407C167.295 15.0455 166.966 13.632 166.308 12.3004C165.65 10.9687 164.734 9.89403 163.559 9.07635C162.408 8.23529 161.057 7.81477 159.506 7.81477C158.354 7.81477 157.297 8.07176 156.334 8.58573C155.37 9.07635 154.524 9.71881 153.796 10.5131C153.091 11.3075 152.504 12.1719 152.034 13.1064V19.7297C152.081 20.4773 152.339 21.1898 152.809 21.8673C153.279 22.5215 153.878 23.1055 154.607 23.6195C155.335 24.1101 156.099 24.5073 156.898 24.811C157.72 25.0914 158.484 25.2315 159.189 25.2315Z" fill="#4D9C93"/>
<path d="M132.994 51.9419C132.232 51.9419 131.513 51.8018 130.837 51.5214C130.16 51.2551 129.61 50.8416 129.187 50.2808C128.778 49.7201 128.574 49.0193 128.574 48.1782C128.574 47.4493 128.715 46.8816 128.997 46.4751C129.293 46.0686 129.652 45.7812 130.075 45.613C130.498 45.4448 130.9 45.3607 131.281 45.3607C130.9 45.7672 130.611 46.2158 130.414 46.7064C130.216 47.197 130.118 47.6876 130.118 48.1782C130.118 48.6969 130.23 49.1805 130.456 49.629C130.696 50.0776 131.055 50.435 131.535 50.7014C132.014 50.9817 132.62 51.1219 133.353 51.1219C133.988 51.1219 134.608 51.0028 135.214 50.7645C135.82 50.5402 136.314 50.2038 136.695 49.7552C137.089 49.2926 137.287 48.7249 137.287 48.0521C137.287 47.4493 137.132 46.9307 136.821 46.4961C136.511 46.0616 136.109 45.6761 135.616 45.3397C135.137 45.0033 134.622 44.6808 134.072 44.3725C133.522 44.0641 133.001 43.7417 132.507 43.4053C132.028 43.0548 131.633 42.6553 131.323 42.2068C131.013 41.7582 130.858 41.2185 130.858 40.5877C130.858 39.999 130.999 39.3822 131.281 38.7374C131.563 38.0926 131.965 37.4829 132.486 36.9081C133.022 36.3334 133.656 35.8708 134.389 35.5204C135.137 35.1559 135.968 34.9737 136.885 34.9737C137.717 34.9737 138.295 35.177 138.619 35.5835C138.943 35.976 139.105 36.4736 139.105 37.0763C139.105 37.581 139.014 38.1277 138.83 38.7164C138.661 39.2911 138.45 39.8448 138.196 40.3775C137.942 40.8961 137.703 41.3377 137.477 41.7021C137.223 41.6461 137.04 41.5409 136.927 41.3867C136.828 41.2185 136.779 41.0223 136.779 40.798C136.779 40.5036 136.843 40.1672 136.969 39.7887C137.096 39.4103 137.237 39.0178 137.392 38.6113C137.562 38.2048 137.71 37.8123 137.836 37.4338C137.963 37.0413 138.027 36.6909 138.027 36.3825C138.027 36.1021 137.942 35.8849 137.773 35.7307C137.604 35.5625 137.294 35.4783 136.843 35.4783C136.18 35.4783 135.567 35.6325 135.003 35.9409C134.439 36.2493 133.945 36.6488 133.522 37.1394C133.099 37.616 132.768 38.1206 132.528 38.6533C132.303 39.186 132.19 39.6696 132.19 40.1041C132.19 40.6228 132.338 41.0713 132.634 41.4498C132.944 41.8143 133.339 42.1507 133.818 42.4591C134.298 42.7534 134.805 43.0548 135.341 43.3632C135.891 43.6576 136.405 43.987 136.885 44.3514C137.364 44.7159 137.752 45.1504 138.048 45.6551C138.358 46.1457 138.513 46.7484 138.513 47.4633C138.513 48.1922 138.351 48.837 138.027 49.3977C137.703 49.9444 137.265 50.407 136.716 50.7855C136.18 51.164 135.588 51.4513 134.939 51.6476C134.291 51.8438 133.642 51.9419 132.994 51.9419Z" fill="#4D9C93"/>
<path fill-rule="evenodd" clip-rule="evenodd" d="M141.033 50.9116C140.765 50.9116 140.553 50.6874 140.398 50.2388C140.243 49.7902 140.165 49.2856 140.165 48.7249C140.165 48.0521 140.278 47.2531 140.504 46.3279C140.729 45.4028 141.025 44.4285 141.392 43.4053C141.759 42.382 142.167 41.3797 142.619 40.3985C143.084 39.4173 143.556 38.5272 144.035 37.7282C144.515 36.9292 144.966 36.2914 145.389 35.8148C145.812 35.3382 146.178 35.0999 146.489 35.0999C146.742 35.0999 146.919 35.2541 147.017 35.5625C147.13 35.8568 147.186 36.1442 147.186 36.4245C147.186 36.817 147.095 37.2936 146.912 37.8543C146.742 38.415 146.503 39.0178 146.192 39.6626C145.882 40.2934 145.523 40.9171 145.114 41.5339C144.705 42.1507 144.261 42.7184 143.782 43.237C143.302 43.7417 142.816 44.1412 142.323 44.4355C142.153 44.842 142.005 45.2976 141.878 45.8022C141.766 46.3069 141.681 46.8045 141.625 47.2951C141.568 47.7717 141.54 48.1992 141.54 48.5777V48.9772C141.554 49.0894 141.568 49.1945 141.582 49.2926C141.78 48.7179 141.991 48.1642 142.217 47.6315C142.456 47.0849 142.71 46.5872 142.978 46.1387C143.246 45.6761 143.528 45.2766 143.824 44.9402C144.134 44.5897 144.458 44.3234 144.797 44.1412C145.135 43.9449 145.495 43.8468 145.875 43.8468C146.27 43.8468 146.58 43.9449 146.806 44.1412C147.045 44.3234 147.215 44.5617 147.313 44.8561C147.426 45.1364 147.482 45.4308 147.482 45.7392C147.482 46.1737 147.405 46.5942 147.25 47.0007C147.109 47.4073 146.961 47.7997 146.806 48.1782C146.651 48.5567 146.573 48.9212 146.573 49.2716C146.573 49.5519 146.63 49.7552 146.742 49.8813C146.869 50.0075 147.024 50.0706 147.208 50.0706C147.532 50.0706 147.891 49.9164 148.286 49.608C148.695 49.2996 149.097 48.8931 149.491 48.3885C149.721 48.0873 149.931 47.7718 150.122 47.4422C150.259 47.011 150.434 46.6045 150.646 46.2228C150.885 45.8163 151.146 45.4869 151.428 45.2345C151.724 44.9822 152.02 44.8561 152.316 44.8561C152.387 44.8561 152.457 44.8701 152.528 44.8981C152.613 44.9121 152.69 44.9332 152.761 44.9612C152.634 45.0733 152.479 45.2836 152.295 45.592C152.126 45.8864 151.964 46.2298 151.809 46.6223C151.654 47.0007 151.52 47.3792 151.407 47.7577C151.308 48.1362 151.259 48.4586 151.259 48.7249C151.259 49.1454 151.33 49.4538 151.471 49.6501C151.612 49.8323 151.795 49.9234 152.02 49.9234C152.316 49.9234 152.669 49.7692 153.078 49.4608C153.487 49.1384 153.888 48.7319 154.283 48.2413C153.888 47.9189 153.578 47.4984 153.353 46.9797C153.141 46.4471 153.036 45.9074 153.036 45.3607C153.036 44.8981 153.113 44.4636 153.268 44.0571C153.437 43.6506 153.677 43.3282 153.987 43.0899C154.297 42.8375 154.671 42.7114 155.108 42.7114C155.686 42.7114 156.074 42.8656 156.271 43.174C156.468 43.4823 156.567 43.8678 156.567 44.3304C156.567 44.8771 156.433 45.4869 156.165 46.1597C155.897 46.8185 155.559 47.4563 155.15 48.0731C155.404 48.2133 155.672 48.2834 155.954 48.2834C156.179 48.2834 156.433 48.2413 156.715 48.1572C156.997 48.0591 157.272 47.8979 157.54 47.6736C157.754 47.5031 157.936 47.288 158.085 47.0283L158.116 46.8536C158.313 45.7181 158.511 44.3094 158.708 42.6273C158.722 42.5011 158.75 42.41 158.793 42.3539C158.835 42.2979 158.941 42.2698 159.11 42.2698C159.476 42.2698 159.737 42.375 159.892 42.5852C160.047 42.7815 160.125 42.9987 160.125 43.237C160.125 43.4333 160.083 43.7837 159.998 44.2884C159.913 44.793 159.794 45.3887 159.638 46.0756C159.878 45.613 160.174 45.1434 160.527 44.6668C160.893 44.1902 161.309 43.7907 161.774 43.4683C162.24 43.1459 162.747 42.9847 163.297 42.9847C163.917 42.9847 164.425 43.209 164.82 43.6576C165.228 44.0921 165.433 44.6668 165.433 45.3817C165.433 45.9284 165.306 46.5101 165.052 47.1269C164.813 47.7297 164.467 48.3044 164.016 48.8511C163.579 49.3837 163.057 49.8183 162.451 50.1547C161.845 50.4911 161.175 50.6593 160.442 50.6593C160.075 50.6593 159.779 50.6173 159.554 50.5332C159.328 50.4491 159.216 50.365 159.216 50.2808C159.216 50.2248 159.265 50.1897 159.364 50.1757H159.744C160.308 50.1757 160.844 50.0425 161.351 49.7762C161.873 49.4959 162.338 49.1314 162.747 48.6829C163.156 48.2343 163.473 47.7367 163.699 47.19C163.938 46.6433 164.058 46.1036 164.058 45.571C164.058 45.1224 163.96 44.7439 163.762 44.4355C163.579 44.1131 163.276 43.9519 162.853 43.9519C162.486 43.9519 162.12 44.0711 161.753 44.3094C161.401 44.5337 161.062 44.828 160.738 45.1925C160.428 45.5429 160.146 45.9144 159.892 46.3069C159.653 46.6854 159.469 47.0288 159.342 47.3372C159.089 48.3885 158.835 49.3977 158.581 50.365C158.327 51.3462 158.081 52.2293 157.841 53.0143C157.615 53.8133 157.411 54.4651 157.228 54.9697C157.03 55.4743 156.868 55.7827 156.741 55.8949C156.671 55.965 156.586 56 156.487 56C156.375 56 156.269 55.9369 156.17 55.8108C156.057 55.6986 155.973 55.5725 155.916 55.4323C155.86 55.3061 155.832 55.229 155.832 55.201C156.029 54.5141 156.227 53.8974 156.424 53.3507L156.995 51.6896C157.178 51.1289 157.362 50.4701 157.545 49.7131C157.672 49.1799 157.802 48.5594 157.935 47.8517C157.74 48.0745 157.516 48.2535 157.265 48.3885C156.757 48.6548 156.271 48.788 155.806 48.788C155.623 48.788 155.446 48.774 155.277 48.7459C155.108 48.7039 154.946 48.6478 154.791 48.5777C154.311 49.2085 153.783 49.7342 153.205 50.1547C152.641 50.5752 152.091 50.7855 151.555 50.7855C150.949 50.7855 150.519 50.5962 150.265 50.2178C150.011 49.8533 149.885 49.4048 149.885 48.8721C149.885 48.7699 149.888 48.6669 149.896 48.5631C149.833 48.6536 149.769 48.7426 149.703 48.83C149.28 49.3767 148.815 49.8113 148.307 50.1337C147.8 50.4561 147.271 50.6173 146.721 50.6173C146.242 50.6173 145.875 50.4911 145.622 50.2388C145.382 49.9865 145.262 49.6711 145.262 49.2926C145.262 48.9982 145.318 48.6688 145.431 48.3044C145.544 47.9399 145.65 47.5685 145.748 47.19C145.861 46.8115 145.918 46.4541 145.918 46.1176C145.918 45.7532 145.84 45.4939 145.685 45.3397C145.53 45.1855 145.34 45.1084 145.114 45.1084C144.762 45.1084 144.444 45.2486 144.162 45.5289C143.88 45.8093 143.62 46.1737 143.38 46.6223C143.154 47.0568 142.936 47.5194 142.724 48.01C142.527 48.5006 142.337 48.9702 142.153 49.4188C141.97 49.8533 141.787 50.2108 141.604 50.4911C141.42 50.7715 141.23 50.9116 141.033 50.9116ZM142.597 43.6155C142.992 43.3071 143.373 42.9146 143.739 42.438C144.12 41.9615 144.473 41.4568 144.797 40.9242C145.121 40.3775 145.41 39.8448 145.664 39.3262C145.918 38.8075 146.115 38.3379 146.256 37.9174C146.397 37.4969 146.467 37.1815 146.467 36.9712C146.467 36.9011 146.46 36.8591 146.446 36.8451C146.432 36.817 146.411 36.803 146.383 36.803C146.284 36.803 146.08 36.9992 145.77 37.3917C145.473 37.7702 145.128 38.2819 144.733 38.9267C144.339 39.5715 143.951 40.3004 143.57 41.1134C143.19 41.9264 142.865 42.7605 142.597 43.6155ZM154.664 47.6946C155.016 47.176 155.305 46.6363 155.531 46.0756C155.771 45.5009 155.89 44.9612 155.89 44.4566C155.89 44.0501 155.827 43.7557 155.7 43.5735C155.587 43.3772 155.439 43.2791 155.256 43.2791C154.974 43.2791 154.685 43.4823 154.389 43.8889C154.093 44.2954 153.945 44.807 153.945 45.4238C153.945 45.8303 154.001 46.2438 154.114 46.6643C154.241 47.0708 154.424 47.4143 154.664 47.6946Z" fill="#4D9C93"/>
<path d="M0.425702 43.1039L116.737 43.1039V42.7534L0.425702 42.7534V43.1039Z" fill="#4D9C93"/>
</svg>
