<svg width="66" height="56" viewBox="0 0 66 56" fill="none" xmlns="http://www.w3.org/2000/svg">
<path d="M36.3374 1.35833C35.1488 -0.432449 32.554 -0.45697 31.3326 1.31102L0.552741 45.8634C-0.853258 47.8985 0.585439 50.6931 3.03915 50.6931H17.9355C18.2 50.6931 18.4145 50.4761 18.4145 50.2083C18.4145 49.9406 18.2 49.7235 17.9355 49.7235H3.03915C1.36029 49.7235 0.375923 47.8115 1.33792 46.419L32.1178 1.8666C32.9535 0.656922 34.7289 0.673704 35.5421 1.89897L64.6841 45.805C65.6104 47.2006 64.6222 49.0771 62.961 49.0771H62.6452C62.3806 49.0771 62.1661 49.2942 62.1661 49.5619C62.1661 49.8297 62.3806 50.0467 62.6452 50.0467H62.961C65.3889 50.0467 66.8333 47.304 65.4794 45.2643L36.3374 1.35833Z" fill="#FAFFFE"/>
<path d="M24.1115 51.5942C24.7655 51.87 25.4604 52.0079 26.1962 52.0079C26.823 52.0079 27.4498 51.9114 28.0766 51.7183C28.7034 51.5252 29.2757 51.2426 29.7935 50.8702C30.3249 50.4979 30.7473 50.0429 31.0607 49.5051C31.374 48.9535 31.5307 48.3191 31.5307 47.6021C31.5307 46.8988 31.3809 46.3059 31.0811 45.8232C30.795 45.3268 30.4202 44.8993 29.957 44.5408C29.4937 44.1822 28.9963 43.8582 28.4649 43.5686C27.9472 43.2652 27.4566 42.9687 26.9933 42.6792C26.5301 42.3758 26.1485 42.0448 25.8488 41.6863C25.5626 41.314 25.4196 40.8727 25.4196 40.3625C25.4196 39.935 25.5286 39.4593 25.7466 38.9353C25.9782 38.4113 26.2984 37.9148 26.7072 37.446C27.116 36.9633 27.5929 36.5703 28.1379 36.267C28.683 35.9636 29.2757 35.8119 29.9161 35.8119C30.3521 35.8119 30.6519 35.8946 30.8154 36.0601C30.9789 36.2118 31.0607 36.4255 31.0607 36.7013C31.0607 37.0047 30.9993 37.3495 30.8767 37.7356C30.7541 38.1079 30.611 38.494 30.4475 38.8939C30.2976 39.2938 30.1613 39.6799 30.0387 40.0522C29.9161 40.4245 29.8548 40.7555 29.8548 41.0451C29.8548 41.2657 29.9025 41.4588 29.9978 41.6243C30.1068 41.7759 30.284 41.8794 30.5292 41.9345C30.7473 41.576 30.9789 41.1416 31.2242 40.6314C31.4694 40.1074 31.6738 39.5627 31.8373 38.9973C32.0145 38.4182 32.103 37.8804 32.103 37.3839C32.103 36.791 31.9463 36.3014 31.6329 35.9153C31.3195 35.5154 30.7609 35.3155 29.957 35.3155C29.0713 35.3155 28.2674 35.4947 27.5452 35.8533C26.8367 36.198 26.2235 36.6531 25.7057 37.2184C25.2016 37.7838 24.8132 38.3837 24.5407 39.018C24.2682 39.6523 24.1319 40.2591 24.1319 40.8382C24.1319 41.4588 24.2818 41.9897 24.5816 42.431C24.8813 42.8722 25.2629 43.2652 25.7261 43.61C26.2031 43.9409 26.7072 44.2581 27.2386 44.5615C27.77 44.8648 28.2674 45.182 28.7306 45.5129C29.2075 45.8439 29.5959 46.2231 29.8956 46.6506C30.1954 47.0781 30.3453 47.5883 30.3453 48.1812C30.3453 48.8432 30.1545 49.4016 29.773 49.8567C29.4051 50.298 28.9282 50.6289 28.3423 50.8496C27.7564 51.084 27.1569 51.2012 26.5437 51.2012C25.8352 51.2012 25.2492 51.0633 24.786 50.7875C24.3227 50.5255 23.9752 50.1739 23.7436 49.7326C23.5256 49.2913 23.4166 48.8156 23.4166 48.3054C23.4166 47.8227 23.512 47.3401 23.7027 46.8574C23.8935 46.3748 24.1728 45.9335 24.5407 45.5336C24.1728 45.5336 23.7845 45.6164 23.3757 45.7818C22.9669 45.9473 22.6195 46.23 22.3333 46.6299C22.0608 47.0298 21.9245 47.5883 21.9245 48.3054C21.9245 49.1327 22.1221 49.8222 22.5173 50.3738C22.926 50.9254 23.4575 51.3322 24.1115 51.5942Z" fill="#FAFFFE"/>
<path fill-rule="evenodd" clip-rule="evenodd" d="M33.3525 50.3324C33.5024 50.7737 33.7068 50.9943 33.9657 50.9943C34.1564 50.9943 34.3404 50.8565 34.5175 50.5807C34.6946 50.3049 34.8718 49.9532 35.0489 49.5257C35.2261 49.0845 35.41 48.6225 35.6008 48.1399C35.8051 47.6572 36.0163 47.2022 36.2344 46.7747C36.466 46.3334 36.7181 45.9749 36.9906 45.6991C37.2631 45.4233 37.5697 45.2854 37.9103 45.2854C38.1284 45.2854 38.3123 45.3613 38.4622 45.5129C38.6121 45.6646 38.687 45.9197 38.687 46.2783C38.687 46.6092 38.6325 46.9609 38.5235 47.3332C38.4281 47.7055 38.3259 48.0709 38.2169 48.4295C38.1079 48.788 38.0534 49.1121 38.0534 49.4016C38.0534 49.774 38.1692 50.0842 38.4009 50.3324C38.6461 50.5807 39.0004 50.7048 39.4637 50.7048C39.9951 50.7048 40.506 50.5462 40.9966 50.229C41.4871 49.9119 41.9368 49.4844 42.3455 48.9466C42.4093 48.8605 42.4716 48.773 42.5323 48.684C42.5248 48.786 42.521 48.8874 42.521 48.9879C42.521 49.512 42.6436 49.9532 42.8889 50.3118C43.1342 50.6841 43.5498 50.8702 44.1357 50.8702C44.6535 50.8702 45.1849 50.6634 45.7299 50.2497C46.2886 49.836 46.7995 49.3189 47.2628 48.6984C47.4127 48.7673 47.5694 48.8225 47.7329 48.8638C47.8964 48.8914 48.0667 48.9052 48.2439 48.9052C48.6935 48.9052 49.1636 48.7742 49.6541 48.5122C49.8969 48.3794 50.1129 48.2034 50.302 47.9842C50.1729 48.6803 50.0471 49.2907 49.9246 49.8153C49.7475 50.56 49.5703 51.2081 49.3932 51.7597C49.2025 52.325 49.0185 52.8697 48.8414 53.3938C48.6506 53.9316 48.4598 54.5383 48.2691 55.214C48.2691 55.2416 48.2963 55.3174 48.3508 55.4415C48.4053 55.5794 48.4871 55.7035 48.5961 55.8138C48.6915 55.9379 48.7937 56 48.9027 56C48.9981 56 49.0798 55.9655 49.148 55.8966C49.2706 55.7863 49.4273 55.4829 49.618 54.9865C49.7952 54.49 49.9928 53.8488 50.2108 53.0628C50.4424 52.2906 50.6809 51.4218 50.9261 50.4565C51.1714 49.5051 51.4167 48.5122 51.6619 47.478C51.7845 47.1746 51.9617 46.8368 52.1933 46.4644C52.4386 46.0783 52.7111 45.7129 53.0109 45.3682C53.3243 45.0096 53.6513 44.72 53.9919 44.4994C54.3462 44.265 54.7005 44.1478 55.0547 44.1478C55.4635 44.1478 55.7565 44.3063 55.9336 44.6235C56.1244 44.9269 56.2197 45.2992 56.2197 45.7405C56.2197 46.2645 56.1039 46.7954 55.8723 47.3332C55.6543 47.871 55.3477 48.3605 54.9525 48.8018C54.5574 49.2431 54.1077 49.6016 53.6036 49.8774C53.1131 50.1394 52.5953 50.2704 52.0502 50.2704H51.6824C51.587 50.2842 51.5393 50.3186 51.5393 50.3738C51.5393 50.4565 51.6483 50.5393 51.8663 50.622C52.0843 50.7048 52.3705 50.7461 52.7247 50.7461C53.4333 50.7461 54.0805 50.5807 54.6664 50.2497C55.2523 49.9187 55.7565 49.4913 56.1789 48.9673C56.6149 48.4295 56.9487 47.8641 57.1804 47.2711C57.4256 46.6644 57.5483 46.0921 57.5483 45.5543C57.5483 44.851 57.3507 44.2857 56.9555 43.8582C56.574 43.4169 56.0835 43.1963 55.4839 43.1963C54.9525 43.1963 54.462 43.3549 54.0124 43.672C53.5627 43.9892 53.1608 44.3822 52.8065 44.851C52.4658 45.3199 52.1797 45.7818 51.9481 46.2369C52.0979 45.5612 52.2138 44.9751 52.2955 44.4787C52.3773 43.9823 52.4181 43.6375 52.4181 43.4445C52.4181 43.2101 52.3432 42.9963 52.1933 42.8033C52.0434 42.5964 51.7914 42.493 51.4371 42.493C51.2736 42.493 51.1714 42.5206 51.1305 42.5757C51.0896 42.6309 51.0624 42.7205 51.0488 42.8446C50.858 44.4994 50.6672 45.8853 50.4765 47.0022C50.4666 47.06 50.4568 47.1173 50.4469 47.1741C50.3027 47.4296 50.127 47.6412 49.9198 47.8089C49.6609 48.0296 49.3952 48.1881 49.1227 48.2847C48.8502 48.3674 48.6049 48.4088 48.3869 48.4088C48.1144 48.4088 47.8555 48.3398 47.6103 48.2019C48.0054 47.5952 48.3324 46.9678 48.5913 46.3196C48.8502 45.6577 48.9797 45.0579 48.9797 44.5201C48.9797 44.065 48.8843 43.6858 48.6935 43.3824C48.5028 43.0791 48.128 42.9274 47.5694 42.9274C47.147 42.9274 46.7859 43.0515 46.4861 43.2997C46.1864 43.5341 45.9547 43.8513 45.7912 44.2512C45.6413 44.6511 45.5664 45.0786 45.5664 45.5336C45.5664 46.0714 45.6686 46.6023 45.873 47.1263C46.091 47.6366 46.3907 48.0502 46.7723 48.3674C46.3907 48.8501 46.0024 49.2499 45.6073 49.5671C45.2121 49.8705 44.8715 50.0222 44.5853 50.0222C44.3673 50.0222 44.1902 49.9325 44.0539 49.7533C43.9177 49.5602 43.8495 49.2568 43.8495 48.8432C43.8495 48.5811 43.8972 48.264 43.9926 47.8917C44.1016 47.5193 44.2311 47.147 44.3809 46.7747C44.5308 46.3886 44.6875 46.0507 44.851 45.7612C45.0282 45.4578 45.1781 45.2509 45.3007 45.1406C45.2326 45.113 45.1576 45.0924 45.0759 45.0786C45.0077 45.051 44.9396 45.0372 44.8715 45.0372C44.5853 45.0372 44.2992 45.1613 44.013 45.4095C43.7405 45.6577 43.4885 45.9818 43.2568 46.3817C43.0521 46.7573 42.8834 47.1571 42.7507 47.5814C42.5659 47.9056 42.3627 48.2159 42.1411 48.5122C41.7596 49.0086 41.3713 49.4085 40.9761 49.7119C40.5946 50.0153 40.2472 50.167 39.9338 50.167C39.7566 50.167 39.6067 50.1049 39.4841 49.9808C39.3751 49.8567 39.3206 49.6567 39.3206 49.381C39.3206 49.0362 39.3956 48.6777 39.5454 48.3054C39.6953 47.933 39.8384 47.5469 39.9746 47.147C40.1245 46.7471 40.1995 46.3334 40.1995 45.906C40.1995 45.6026 40.145 45.313 40.036 45.0372C39.9406 44.7476 39.7771 44.5132 39.5454 44.3339C39.3274 44.1409 39.0276 44.0443 38.6461 44.0443C38.2782 44.0443 37.9308 44.1409 37.6038 44.3339C37.2767 44.5132 36.9633 44.7752 36.6636 45.1199C36.3774 45.4509 36.1049 45.8439 35.846 46.299C35.5871 46.7402 35.3419 47.2298 35.1102 47.7676C34.8922 48.2916 34.6878 48.8363 34.4971 49.4016C34.4834 49.3051 34.4698 49.2017 34.4562 49.0914V48.6984C34.4562 48.326 34.4834 47.9055 34.5379 47.4366C34.5924 46.954 34.6742 46.4644 34.7832 45.968C34.9058 45.4716 35.0489 45.0234 35.2124 44.6235C35.6893 44.3339 36.1594 43.9409 36.6227 43.4445C37.086 42.9343 37.5152 42.3758 37.9103 41.769C38.3055 41.1623 38.6529 40.5487 38.9527 39.9281C39.2525 39.2938 39.4841 38.7008 39.6476 38.1493C39.8248 37.5977 39.9133 37.1288 39.9133 36.7427C39.9133 36.4669 39.8588 36.1842 39.7498 35.8946C39.6544 35.5913 39.4841 35.4396 39.2388 35.4396C38.9391 35.4396 38.5848 35.674 38.176 36.1429C37.7673 36.6117 37.3312 37.2391 36.868 38.0251C36.4047 38.8112 35.9482 39.6868 35.4986 40.6521C35.0625 41.6174 34.6674 42.6033 34.3131 43.61C33.9588 44.6166 33.6727 45.575 33.4547 46.4851C33.2367 47.3952 33.1277 48.1812 33.1277 48.8432C33.1277 49.3947 33.2026 49.8912 33.3525 50.3324ZM36.5818 42.6585C36.2275 43.1273 35.8597 43.5134 35.4781 43.8168C35.737 42.9756 36.0504 42.1552 36.4183 41.3554C36.7862 40.5556 37.1609 39.8385 37.5424 39.2042C37.924 38.5698 38.2578 38.0665 38.5439 37.6942C38.8437 37.3081 39.0413 37.115 39.1367 37.115C39.1639 37.115 39.1843 37.1288 39.198 37.1564C39.2116 37.1702 39.2184 37.2116 39.2184 37.2805C39.2184 37.4873 39.1503 37.7976 39.014 38.2113C38.8778 38.625 38.687 39.087 38.4417 39.5972C38.1965 40.1074 37.9171 40.6314 37.6038 41.1692C37.2904 41.6932 36.9497 42.1896 36.5818 42.6585ZM47.9782 46.2369C47.7601 46.7885 47.4808 47.3194 47.1402 47.8296C46.9085 47.5538 46.7314 47.216 46.6088 46.8161C46.4998 46.4024 46.4453 45.9956 46.4453 45.5957C46.4453 44.9889 46.5883 44.4856 46.8745 44.0857C47.1606 43.6858 47.4399 43.4859 47.7125 43.4859C47.8896 43.4859 48.0327 43.5824 48.1417 43.7754C48.2643 43.9547 48.3256 44.2443 48.3256 44.6442C48.3256 45.1406 48.2098 45.6715 47.9782 46.2369Z" fill="#FAFFFE"/>
</svg>
